<svg width="228" height="161" viewBox="0 0 228 161" fill="none" xmlns="http://www.w3.org/2000/svg">
<path d="M224.5 51C224.5 56.9107 221.837 62.8001 216.498 68.447C211.142 74.1123 203.227 79.3732 193.181 83.8676C173.097 92.8526 145.105 98.5 114 98.5C82.895 98.5 54.9034 92.8526 34.8191 83.8676C24.7729 79.3732 16.8583 74.1123 11.502 68.447C6.16313 62.8001 3.5 56.9107 3.5 51C3.5 45.0893 6.16313 39.1999 11.502 33.553C16.8583 27.8877 24.7729 22.6268 34.8191 18.1324C54.9034 9.14735 82.895 3.5 114 3.5C145.105 3.5 173.097 9.14735 193.181 18.1324C203.227 22.6268 211.142 27.8877 216.498 33.553C221.837 39.1999 224.5 45.0893 224.5 51Z" fill="black" stroke="white" stroke-width="7"/>
<path d="M39 110.5L18 156.5" stroke="white" stroke-width="7" stroke-linecap="round"/>
<path d="M213 157L190 111" stroke="white" stroke-width="7" stroke-linecap="round"/>
<path d="M114 115V134" stroke="white" stroke-width="7" stroke-linecap="round"/>
<path d="M83.5001 68C64.5001 75.5 50.5298 89 50.5298 89L32 82.5L18.5298 73.5C18.5298 73.5 43.5001 62.5 53.0001 45C62.5001 27.5 104.5 51.5 106.5 33C108.5 14.5 160 9.5 160 9.5L184.5 15C184.5 15 164 31 154 45C144 59 102.5 60.5 83.5001 68Z" fill="#00CABE" stroke="white" stroke-width="7" stroke-linecap="round" stroke-linejoin="round"/>
</svg>
