<svg width="150" height="153" viewBox="0 0 150 153" fill="none" xmlns="http://www.w3.org/2000/svg">
<path d="M82.0001 30.5C104.572 36.047 112.417 44.695 120 67.5M146.5 67.5C135.347 29.002 122.546 13.7174 82.0001 3.5M101.5 67.5C98.5401 56.8947 94.361 52.883 82.0001 49.5M82.0001 115C57.6214 101.069 46.9209 91.0551 35.5001 67.5L52.0001 49.5L23.0001 19.5C23.0001 19.5 14.1971 26.0763 10.5001 31.5C6.80322 36.9237 4.00013 47 4.00013 47C3.95477e-05 67.5 27.7252 129.789 105 149C105 149 113 147 120.75 141.5C128.5 136 133 129 133 129L101.5 99L82.0001 115Z" stroke="black" stroke-width="7" stroke-linecap="round" stroke-linejoin="round"/>
</svg>
