<svg width="800" height="598" viewBox="0 0 800 598" fill="none" xmlns="http://www.w3.org/2000/svg">
<g clip-path="url(#clip0_208_10)">
<g clip-path="url(#clip1_208_10)">
<path d="M313.237 574.027C304.868 570.49 302.273 573.222 303.438 570.464C305.495 565.597 306.09 569.34 362.229 549.086C388.972 539.353 424.929 525.995 448.635 516.127C482.646 502.009 511.596 484.059 501.827 484.059C496.561 469.977 491.619 470.211 498.518 466.243C508.45 466.243 503.93 450.702 505.645 446.646C515.166 446.646 503.565 436.332 498.518 420.814C496.473 414.213 489.926 413.281 493.174 408.343C498.517 400.275 518.012 394.155 523.445 393.2C542.623 299.767 564.51 334.135 540.746 308.413C562.128 322.804 543.432 300.111 551.315 311.665C526.031 190.262 381.439 5.66647 380.045 3.93012C400.259 10.5607 408.783 17.125 428.147 25.3088C535.798 70.8047 610.961 128.667 656.186 173.595C682.521 211.764 724.424 260.302 734.574 274.726C736.553 238.466 755.379 249.427 734.574 204.355L740.547 218.607C769.019 257.411 763.248 253.053 775.55 290.76C787.852 328.467 792.267 363.608 792.475 388.746C792.614 426.858 783.068 459.869 779.113 474.26C780.387 473.078 760.016 510.626 783.567 483.168C772.741 514.733 773.643 506.349 761.297 525.035C743.608 551.787 726.566 558.345 722.103 560.666C715.295 569.453 680.179 580.922 501.827 587.389C404.457 590.792 337.688 584.361 313.237 574.027Z" fill="white"/>
<path d="M374.194 2.32974C374.194 2.32974 524.403 186.472 531.965 313.197C531.965 313.197 530.971 281.225 478.854 246.196C478.854 246.196 526.781 298.003 505.34 396.79C505.34 396.79 475.033 399.853 481.839 421.277C488.644 442.702 500.283 446.282 500.283 446.282C500.283 446.282 494.099 459.54 496.12 463.454C496.12 463.454 479.135 470.235 485.972 487.466C492.809 504.697 295.553 563.217 291.371 573.114C287.188 583.011 381.995 598.029 503.035 593.538C624.007 589.21 717.003 582.428 722.146 570.26C722.146 570.26 765.875 551.453 794.141 468.554C794.141 468.554 784.759 479.312 780.382 478.228C780.382 478.228 833.744 335.947 725.102 187.538C725.102 187.538 740.118 220.655 734.26 264.263C734.328 264.101 623.051 83.027 374.194 2.32974Z" fill="black"/>
<path d="M739.893 539.708C724.9 552.302 710.499 560.748 710.499 560.748L689.83 557.941L621.886 548.922L545.319 529.184L488.298 514.455C488.298 514.455 489.354 512.415 491.026 508.915C498.868 493.107 520.078 447.955 514.363 443.628C514.199 443.559 514.199 443.559 514.199 443.559C514.035 443.489 513.871 443.42 513.543 443.281C513.215 443.143 512.886 443.004 512.558 442.865C504.818 439.212 502.381 428.047 503.237 419.613C504.026 411.341 520.2 407.851 522.554 407.316C522.786 407.223 522.786 407.223 522.786 407.223C524.145 402.634 525.34 397.976 526.207 393.179C532.673 357.286 524.586 318.301 524.586 318.301C534.946 327.651 538.351 370.394 538.351 370.394L542.768 345.298C564.902 238.008 482.883 117.678 436.726 60.3089C436.371 59.7763 435.947 59.406 435.756 58.9428C419.127 38.3383 407.292 26.07 407.292 26.07C464.646 49.1622 514.661 79.0959 557.15 110.82C557.901 111.329 558.653 111.838 559.337 112.51C678.34 201.621 739.036 303.761 739.036 303.761C743.774 298.498 746.167 286.888 747.312 276.855C748.443 267.772 748.465 259.941 748.506 259.385C763.656 281.659 769.889 314.506 771.442 348.817C772.366 368.139 771.731 387.948 770.385 406.693C766.763 457.365 757.596 499.193 757.596 499.193L764.821 497.657L772.511 495.935C768.829 511.971 754.051 527.716 739.893 539.708Z" fill="#D33C3C"/>
<path d="M491.026 508.915C498.868 493.107 520.078 447.955 514.363 443.628C514.199 443.559 514.199 443.559 514.199 443.559C514.035 443.489 513.871 443.42 513.543 443.281C513.215 443.143 512.886 443.004 512.558 442.865C504.818 439.212 502.381 428.047 503.237 419.613C504.026 411.341 520.2 407.851 522.554 407.316C522.786 407.223 522.786 407.223 522.786 407.223C524.145 402.634 525.34 397.976 526.207 393.179C532.673 357.286 524.586 318.301 524.586 318.301C534.946 327.651 538.351 370.394 538.351 370.394L542.768 345.298C564.902 238.008 482.883 117.678 436.726 60.3088C439.364 62.7623 608.708 224.97 548.203 382.78C546.378 387.554 544.622 392.166 543.099 396.685C516.481 473.397 528.291 510.896 545.319 529.184L488.298 514.455C488.298 514.455 489.354 512.415 491.026 508.915Z" fill="#BA2D2D"/>
<path d="M739.893 539.708C724.9 552.302 710.499 560.749 710.499 560.749L689.83 557.941C696.968 534.187 706.067 505.334 710.759 492.401C715.958 478.727 724.714 437.873 727.192 394.94C728.907 362.966 727.039 329.86 717.199 306.006C694.298 250.816 561.223 114.454 559.173 112.44C678.176 201.552 738.872 303.692 738.872 303.692C743.611 298.428 746.003 286.819 747.148 276.786C748.279 267.703 748.301 259.872 748.342 259.316C763.492 281.59 769.725 314.437 771.278 348.748C772.202 368.069 771.567 387.879 770.221 406.623C766.599 457.296 757.432 499.124 757.432 499.124L764.657 497.588L772.347 495.866C768.829 511.971 754.051 527.716 739.893 539.708Z" fill="#F47676"/>
<path d="M739.893 539.707C724.9 552.302 710.499 560.748 710.499 560.748L689.83 557.941L621.885 548.922L545.319 529.183L488.298 514.455C488.298 514.455 489.354 512.415 491.026 508.915C498.868 493.107 520.077 447.955 514.363 443.628C514.199 443.559 514.199 443.559 514.199 443.559C514.035 443.489 513.871 443.42 513.543 443.281C513.214 443.142 512.886 443.004 512.558 442.865C504.818 439.212 502.381 428.047 503.237 419.613C504.025 411.341 520.2 407.85 522.553 407.315C522.786 407.223 522.786 407.223 522.786 407.223C524.145 402.634 525.34 397.976 526.207 393.179C526.207 393.179 537.441 390.852 543.004 396.454C544.958 398.236 542.295 421.013 549.515 424.064C549.515 424.064 573.773 354.768 622.82 381.042C622.82 381.042 695.367 357.205 711.975 398.452C711.975 398.452 718.448 396.407 727.329 394.615C743.996 391.333 768.336 389.573 770.59 406.206C766.969 456.879 757.801 498.706 757.801 498.706L765.027 497.17L772.717 495.449C768.829 511.971 754.051 527.716 739.893 539.707Z" fill="#E2E2E2"/>
<path d="M562.483 480.792L564.763 485.007L577.593 488.516L578.381 480.244L562.483 480.792Z" fill="#BA2D2D"/>
<path d="M651.864 436.342C634.039 435.501 591.218 461.767 591.218 461.767C584.763 473.381 578.606 487.033 578.606 487.033L557.302 476.117C557.302 476.117 557.207 475.885 557.016 475.422C556.92 475.19 556.825 474.959 556.634 474.496C553.782 466.598 542.901 431.021 577.994 415.257C583.25 412.889 588.656 411.541 594.21 411.211C629.305 408.259 667.213 437.092 651.864 436.342Z" fill="#BABABA"/>
<path d="M535.967 510.125C512.552 503.288 495.241 507.637 491.191 508.984C498.868 493.107 520.242 448.025 514.527 443.697C514.363 443.628 514.363 443.628 514.363 443.628C514.199 443.559 514.035 443.489 513.707 443.351C513.379 443.212 513.051 443.073 512.722 442.935L518.796 430.395L542.89 455.302L556.771 474.171C556.607 474.102 562.637 517.954 535.967 510.125Z" fill="#BABABA"/>
<path d="M529.713 457.191C529.713 457.191 551.591 482.308 552.081 484.81C552.571 487.312 567.992 485.606 567.992 485.606L574.187 473.692L566.141 462.069L531.54 450.122L529.713 457.191Z" fill="#BABABA"/>
<path d="M549.893 470.308C549.496 470.332 549.1 470.355 548.703 470.379C542.656 470.5 517.863 445.872 514.363 443.628C514.199 443.559 514.199 443.559 514.199 443.559C514.035 443.489 513.871 443.42 513.543 443.281C505.036 440.069 502.408 428.44 503.237 419.613C503.21 419.219 503.416 418.732 503.389 418.338C505.681 411.084 520.2 407.85 522.321 407.408C522.485 407.478 522.416 407.64 522.58 407.709C525.094 411.831 529.123 418.314 532.988 424.728C538.793 433.875 544.64 442.465 546.732 443.922C549.056 445.287 551.2 449.826 552.988 453.833C554.612 457.77 555.648 461.267 555.648 461.267C555.648 461.267 555.496 462.542 555.043 464.071C554.644 466.388 553.109 469.564 549.893 470.308Z" fill="#BABABA"/>
<path d="M580.134 546.574C580.134 546.574 572.213 546.095 562.504 541.609L580.134 546.574Z" fill="#BA2D2D"/>
<path d="M560.289 485.984L552.15 484.648C552.468 481.149 551.652 476.215 549.893 470.308C548.421 465.097 546.361 459.446 544.041 453.494C535.867 433.02 524.479 410.998 522.745 407.779C528.932 417.851 543.396 441.748 546.965 443.83C549.289 445.194 551.433 449.733 553.221 453.74L554.95 461.546L555.181 463.747L556.075 472.156L560.289 485.984Z" fill="white"/>
<path d="M542.652 447.17C542.351 447.425 541.981 447.842 541.844 448.167C541.092 447.658 540.573 447.056 539.821 446.547C538.973 445.806 538.057 445.228 537.21 444.487C536.034 443.608 535.022 442.798 533.847 441.919C532.507 440.97 531.236 439.859 529.896 438.91C528.461 437.73 526.957 436.712 525.685 435.601C524.25 434.421 522.746 433.403 521.311 432.223C519.876 431.042 518.372 430.024 516.936 428.844C515.665 427.733 514.161 426.715 512.89 425.604C511.714 424.725 510.539 423.846 509.432 422.804C508.42 421.994 507.573 421.254 506.492 420.606C505.905 420.166 505.153 419.657 504.633 419.055C504.305 418.917 504.046 418.616 503.881 418.546C506.173 411.292 520.692 408.059 522.813 407.616C522.977 407.686 522.909 407.848 523.073 407.917C525.586 412.039 529.615 418.523 533.481 424.937L542.652 447.17Z" fill="white"/>
<path d="M531.564 439.998C531.564 439.998 541.089 449.951 545.187 456.273C549.217 462.756 544.567 447.214 544.567 447.214L533.849 439.625L531.564 439.998Z" fill="white"/>
<path d="M556.798 474.565C553.946 466.667 543.065 431.091 578.159 415.327C578.159 415.327 555.725 439.118 556.798 474.565Z" fill="white"/>
<path d="M710.989 563.25C464.553 591.234 323.247 573.2 324.55 570.118C324.893 569.306 345.6 561.039 374.547 549.753C375.71 549.288 376.873 548.824 378.201 548.429C447.056 521.884 557.695 480.681 557.695 480.681C592.288 486.696 597.592 504.808 605.175 514.324C612.69 524.001 655.564 539.253 666.44 525.874C674.659 515.58 676.821 501.77 691.68 500.018C691.844 500.088 691.913 499.925 692.077 499.995C693.5 499.831 695.087 499.737 696.77 499.875C700.204 499.987 704.321 500.771 709.121 502.226C725.534 506.868 726.179 518.614 722.981 528.927C719.961 538.359 713.756 546.636 713.756 546.636C723.34 552.79 710.989 563.25 710.989 563.25Z" fill="#FF8500"/>
<path d="M739.893 539.707C754.565 520.093 761.583 506.232 764.889 497.495L772.58 495.773C768.829 511.971 754.051 527.716 739.893 539.707Z" fill="#FFFDFD"/>
<path d="M557.149 110.82C502.224 80.15 457.694 65.1549 435.592 58.8735C418.963 38.2689 407.292 26.07 407.292 26.07C464.482 49.0929 514.429 79.1888 557.149 110.82Z" fill="#E2E2E2"/>
<path d="M771.51 348.655C762.522 308.141 752.748 286.418 747.381 276.693C748.485 267.216 748.575 259.223 748.575 259.223C763.561 281.427 769.958 314.344 771.51 348.655Z" fill="#E2E2E2"/>
<path d="M710.989 563.25C464.553 591.234 323.247 573.2 324.55 570.118C324.893 569.306 345.6 561.039 374.547 549.753L378.269 548.267C376.134 549.659 328.616 580.632 475.096 569.492C624.982 558.071 714.481 559.563 703.315 548.916C703.315 548.916 722.095 511.343 696.77 499.875C700.204 499.987 704.321 500.771 709.121 502.226C740.893 511.256 713.66 546.404 713.66 546.404C723.34 552.79 710.989 563.25 710.989 563.25Z" fill="#FFA95C"/>
<path d="M657.592 495.555C646.739 498.809 618.992 500.85 613.207 498.979C607.354 497.27 586.875 482.113 581.207 485.455C575.376 488.727 591.218 461.767 591.218 461.767C591.218 461.767 594.559 459.355 599.925 456.268C610.096 450.05 627.522 440.396 641.629 438.135C647.691 437.064 653.135 437.453 657.059 440.067C674.518 451.844 677.408 448.667 677.166 457.935C676.829 466.971 668.513 492.139 657.592 495.555Z" fill="#FCFCFC" stroke="#2D2D2D" stroke-width="1.4709" stroke-miterlimit="10"/>
<path d="M545.926 483.356C526.127 486.27 510.7 494.857 510.7 494.857C504.057 488.607 510.842 449.215 510.842 449.215C513.536 450.162 516.421 451.573 519.101 453.47C521.944 455.437 524.651 457.728 527.289 460.181C531.977 464.649 536.062 469.626 539.301 473.863C540.08 474.766 540.694 475.599 541.241 476.595C544.15 480.693 545.926 483.356 545.926 483.356Z" fill="#FCFCFC" stroke="#1E1E1E" stroke-width="1.1494" stroke-miterlimit="10"/>
<path d="M563.864 521.915C564.961 519.319 566.906 517.463 569.438 516.048C571.902 514.795 574.885 514.143 577.785 514.604C580.685 515.064 583.57 516.475 585.388 518.582C585.976 519.021 586.331 519.554 586.617 520.249C586.973 520.781 587.259 521.476 587.614 522.009C588.092 523.167 588.433 524.649 588.678 525.9C587.365 525.345 586.216 524.86 585.136 524.212C584.644 524.004 583.987 523.726 583.495 523.518L582.674 523.172C582.346 523.033 582.182 522.963 582.018 522.894C580.049 522.062 578.271 521.693 576.657 521.393C574.878 521.024 572.963 520.979 570.911 521.259C568.927 521.377 566.642 521.75 563.864 521.915Z" fill="#232323"/>
<path d="M646.514 464.916C641.303 477.246 627.11 482.912 614.639 477.641C605.777 473.896 600.354 465.677 599.761 457.012C609.932 450.794 627.358 441.139 641.465 438.879C648.135 445.522 650.354 455.83 646.514 464.916Z" fill="black"/>
<path d="M539.232 474.025C535.946 477.226 531.128 479.014 526.286 478.115C518.38 476.686 513.175 469.323 514.482 461.653C515.06 458.455 516.691 455.511 519.032 453.633C521.876 455.599 524.582 457.89 527.22 460.344C531.744 464.742 535.994 469.788 539.232 474.025Z" fill="black"/>
<path d="M722.981 528.927C719.651 519.871 709.986 499.723 692.008 500.157C693.431 499.994 695.018 499.899 696.701 500.037C700.135 500.15 704.252 500.933 709.053 502.389C725.698 506.937 726.343 518.683 722.981 528.927Z" fill="#FFFDFD"/>
<path d="M622.916 381.274C622.916 381.274 643.905 365.477 657.135 364.376C657.135 364.376 647.082 375.807 652.541 375.246C658 374.685 698.205 350.947 710.108 350.241C710.108 350.241 687.634 374.588 693.894 379.911C693.894 379.911 710.842 369.099 722.307 368.973C722.307 368.973 710.167 387.171 727.356 395.009C727.356 395.009 735.993 376.86 745.244 374.651C745.244 374.651 738.115 389.23 746.252 392.86C746.252 392.86 757.934 380.779 764.899 378.942C764.899 378.942 765.039 389.136 770.617 406.6L759.921 431.91L656.634 414.073L622.916 381.274Z" fill="#E2E2E2"/>
<path d="M499.282 112.479C597.017 162.52 664.209 205.89 727.736 305.974C727.736 305.974 602.188 190.686 567.981 162.885C533.774 135.084 499.282 112.479 499.282 112.479Z" fill="#E2E2E2"/>
<path d="M535.055 137.682C601.731 178.758 631.139 204.59 687.086 302.722C687.086 302.722 628.706 254.771 604.381 215.741C580.056 176.711 535.055 137.682 535.055 137.682Z" fill="#E2E2E2"/>
</g>
<path d="M87.17 384.38C74.9033 384.38 63.7867 382.08 53.82 377.48C44.0067 372.727 35.4967 366.44 28.29 358.62C21.2367 350.647 15.7933 341.753 11.96 331.94C8.12667 321.973 6.21 311.7 6.21 301.12C6.21 290.233 8.20333 279.883 12.19 270.07C16.33 260.257 22.0033 251.517 29.21 243.85C36.57 236.03 45.2333 229.897 55.2 225.45C65.1667 221.003 76.0533 218.78 87.86 218.78C99.9733 218.78 110.937 221.157 120.75 225.91C130.717 230.51 139.227 236.797 146.28 244.77C153.487 252.743 159.007 261.713 162.84 271.68C166.673 281.493 168.59 291.537 168.59 301.81C168.59 312.697 166.597 323.047 162.61 332.86C158.623 342.673 152.95 351.49 145.59 359.31C138.23 366.977 129.567 373.11 119.6 377.71C109.787 382.157 98.9767 384.38 87.17 384.38ZM44.62 301.58C44.62 307.867 45.54 314 47.38 319.98C49.22 325.807 51.9033 331.02 55.43 335.62C59.11 340.22 63.6333 343.9 69 346.66C74.3667 349.42 80.5 350.8 87.4 350.8C94.6067 350.8 100.893 349.42 106.26 346.66C111.627 343.747 116.073 339.913 119.6 335.16C123.127 330.407 125.733 325.117 127.42 319.29C129.26 313.31 130.18 307.253 130.18 301.12C130.18 294.833 129.26 288.777 127.42 282.95C125.58 277.123 122.82 271.91 119.14 267.31C115.46 262.557 110.937 258.877 105.57 256.27C100.203 253.663 94.1467 252.36 87.4 252.36C80.1933 252.36 73.9067 253.74 68.54 256.5C63.3267 259.26 58.88 263.017 55.2 267.77C51.6733 272.37 48.99 277.66 47.15 283.64C45.4633 289.467 44.62 295.447 44.62 301.58ZM190.386 383V219.7H228.106V349.88H307.226V383H190.386ZM324.927 383V219.7H385.877C403.817 219.7 418.767 223.38 430.727 230.74C442.84 237.947 451.964 247.76 458.097 260.18C464.23 272.447 467.297 286.093 467.297 301.12C467.297 317.68 463.924 332.093 457.177 344.36C450.43 356.627 440.924 366.133 428.657 372.88C416.544 379.627 402.284 383 385.877 383H324.927ZM428.887 301.12C428.887 291.613 427.2 283.257 423.827 276.05C420.454 268.69 415.547 263.017 409.107 259.03C402.667 254.89 394.924 252.82 385.877 252.82H362.647V349.88H385.877C395.077 349.88 402.82 347.81 409.107 343.67C415.547 339.377 420.454 333.55 423.827 326.19C427.2 318.677 428.887 310.32 428.887 301.12Z" fill="white"/>
<path d="M46.22 403.01H62.83L70.97 427.98L79.11 403.01H95.83L82.52 439.31L90.44 460.1L110.02 402.9H129.71L99.24 481H83.62L70.97 450.42L58.43 481H42.7L12.34 402.9H31.92L51.61 460.1L59.31 439.31L46.22 403.01ZM167.698 481.66C161.831 481.66 156.514 480.56 151.748 478.36C147.054 476.087 142.984 473.08 139.538 469.34C136.164 465.527 133.561 461.273 131.728 456.58C129.894 451.813 128.978 446.9 128.978 441.84C128.978 436.633 129.931 431.683 131.838 426.99C133.818 422.297 136.531 418.117 139.978 414.45C143.498 410.71 147.641 407.777 152.408 405.65C157.174 403.523 162.381 402.46 168.028 402.46C173.821 402.46 179.064 403.597 183.758 405.87C188.524 408.07 192.594 411.077 195.968 414.89C199.414 418.703 202.054 422.993 203.888 427.76C205.721 432.453 206.638 437.257 206.638 442.17C206.638 447.377 205.684 452.327 203.778 457.02C201.871 461.713 199.158 465.93 195.638 469.67C192.118 473.337 187.974 476.27 183.208 478.47C178.514 480.597 173.344 481.66 167.698 481.66ZM147.348 442.06C147.348 445.067 147.788 448 148.668 450.86C149.548 453.647 150.831 456.14 152.518 458.34C154.278 460.54 156.441 462.3 159.008 463.62C161.574 464.94 164.508 465.6 167.808 465.6C171.254 465.6 174.261 464.94 176.828 463.62C179.394 462.227 181.521 460.393 183.208 458.12C184.894 455.847 186.141 453.317 186.948 450.53C187.828 447.67 188.268 444.773 188.268 441.84C188.268 438.833 187.828 435.937 186.948 433.15C186.068 430.363 184.748 427.87 182.988 425.67C181.228 423.397 179.064 421.637 176.498 420.39C173.931 419.143 171.034 418.52 167.808 418.52C164.361 418.52 161.354 419.18 158.788 420.5C156.294 421.82 154.168 423.617 152.408 425.89C150.721 428.09 149.438 430.62 148.558 433.48C147.751 436.267 147.348 439.127 147.348 442.06ZM251.272 481.66C245.405 481.66 240.089 480.56 235.322 478.36C230.629 476.087 226.559 473.08 223.112 469.34C219.739 465.527 217.135 461.273 215.302 456.58C213.469 451.813 212.552 446.9 212.552 441.84C212.552 436.633 213.505 431.683 215.412 426.99C217.392 422.297 220.105 418.117 223.552 414.45C227.072 410.71 231.215 407.777 235.982 405.65C240.749 403.523 245.955 402.46 251.602 402.46C257.395 402.46 262.639 403.597 267.332 405.87C272.099 408.07 276.169 411.077 279.542 414.89C282.989 418.703 285.629 422.993 287.462 427.76C289.295 432.453 290.212 437.257 290.212 442.17C290.212 447.377 289.259 452.327 287.352 457.02C285.445 461.713 282.732 465.93 279.212 469.67C275.692 473.337 271.549 476.27 266.782 478.47C262.089 480.597 256.919 481.66 251.272 481.66ZM230.922 442.06C230.922 445.067 231.362 448 232.242 450.86C233.122 453.647 234.405 456.14 236.092 458.34C237.852 460.54 240.015 462.3 242.582 463.62C245.149 464.94 248.082 465.6 251.382 465.6C254.829 465.6 257.835 464.94 260.402 463.62C262.969 462.227 265.095 460.393 266.782 458.12C268.469 455.847 269.715 453.317 270.522 450.53C271.402 447.67 271.842 444.773 271.842 441.84C271.842 438.833 271.402 435.937 270.522 433.15C269.642 430.363 268.322 427.87 266.562 425.67C264.802 423.397 262.639 421.637 260.072 420.39C257.505 419.143 254.609 418.52 251.382 418.52C247.935 418.52 244.929 419.18 242.362 420.5C239.869 421.82 237.742 423.617 235.982 425.89C234.295 428.09 233.012 430.62 232.132 433.48C231.325 436.267 230.922 439.127 230.922 442.06ZM300.636 481V402.9H329.786C338.366 402.9 345.516 404.66 351.236 408.18C357.03 411.627 361.393 416.32 364.326 422.26C367.26 428.127 368.726 434.653 368.726 441.84C368.726 449.76 367.113 456.653 363.886 462.52C360.66 468.387 356.113 472.933 350.246 476.16C344.453 479.387 337.633 481 329.786 481H300.636ZM350.356 441.84C350.356 437.293 349.55 433.297 347.936 429.85C346.323 426.33 343.976 423.617 340.896 421.71C337.816 419.73 334.113 418.74 329.786 418.74H318.676V465.16H329.786C334.186 465.16 337.89 464.17 340.896 462.19C343.976 460.137 346.323 457.35 347.936 453.83C349.55 450.237 350.356 446.24 350.356 441.84ZM386.643 402.9L403.473 437.44L420.523 402.9H440.213L412.383 454.38V481H394.453V454.16L367.062 402.9H386.643Z" fill="white"/>
</g>
<defs>
<clipPath id="clip0_208_10">
<rect width="800" height="598" fill="white"/>
</clipPath>
<clipPath id="clip1_208_10">
<rect width="584.35" height="621.762" fill="white" transform="translate(386.044 -55) rotate(22.9102)"/>
</clipPath>
</defs>
</svg>
