<svg width="2544" height="115" viewBox="0 0 2544 115" fill="none" xmlns="http://www.w3.org/2000/svg">
<path d="M0.99998 75C15 62.5001 239.5 27.9999 280 37C320.5 46 541.5 69.9999 662.5 69.9999C783.5 69.9999 944 36.0001 1003.5 19.0001C1063 2 1193 -0.999878 1200.5 34.5C1208 69.9999 1271 68.808 1271 68.808L1303 58.5C1333 49 1501 19.4999 1541.5 28.5C1582 37.5001 1806.23 63.2218 1927.23 63.2218C2048.23 63.2218 2208.73 29.222 2268.23 12.2219C2327.73 -4.77813 2457.73 -7.77802 2465.23 27.7219C2472.73 63.2217 2543.5 63.5 2543.5 63.5V115H0.99998V75.3933C0.850483 75.2655 0.849401 75.1344 0.99998 75Z" fill="#75FFE6"/>
</svg>
