<svg width="2754" height="94" viewBox="0 0 2754 94" fill="none" xmlns="http://www.w3.org/2000/svg">
<path d="M0.0871937 50.2964C14.0899 62.7482 166.5 5.45433 257.5 39C348.5 72.5457 385 17.6941 507.5 49.9905C630 82.2869 763.167 13.5343 815.5 28.5C849.573 38.2439 980.5 15 1056.5 39C1132.5 63 1228.94 34.9072 1295.5 28.5C1431.78 15.3827 1454.44 12.1096 1526 28.5C1632.52 52.8963 1621.58 61.5928 1663.29 50.2964C1705 39 1903.99 37.4654 1944.5 28.5C1985.01 19.5346 2203.39 50.2961 2324.42 50.2961C2445.44 50.2961 2486.49 26.0096 2546.5 28.5C2606.51 30.9904 2647.48 68.7433 2754 93.1395V1.52588e-05H0.0871937V49.9905C-0.0287403 50.0908 -0.0293883 50.1927 0.0871937 50.2964Z" fill="#62DFC9" fill-opacity="0.44"/>
</svg>
