<svg width="2754" height="38" viewBox="0 0 2754 38" fill="none" xmlns="http://www.w3.org/2000/svg">
<path d="M4.72427 19.6594C29.0027 25.7231 118.875 1.79866 202 17.5C292 34.5 372.5 5.99993 493 17.4999C613.5 29 762.667 2.5343 815 17.4999C849.073 27.2438 987 17.4999 1064 17.4999C1141 17.4999 1228.94 30.4071 1295.5 23.9999C1431.78 10.8826 1440.94 1.10954 1512.5 17.4999C1619.02 41.8962 1613.29 28.7963 1655 17.4999C1696.71 6.20353 1900.49 34.4653 1941 25.4999C1981.51 16.5345 2224.48 17.4999 2345.5 17.4999C2466.52 17.4999 2520.99 20.5095 2581 22.9999C2641.01 25.4903 2647.48 -1.39634 2754 22.9999V5.99993H3.18012C2.05539 -0.944782 0.839725 -2.97116 0.331774 5.99993H0.0871582L0.275115 7.1111C0.15486 9.73667 0.0871608 13.1612 0.0871582 17.4999L5.5 38C5.5 32.0432 5.19258 25.5579 4.72427 19.6594Z" fill="#62DFC9" fill-opacity="0.44"/>
</svg>
