<svg width="228" height="228" viewBox="0 0 228 228" fill="none" xmlns="http://www.w3.org/2000/svg">
<circle cx="114" cy="114" r="114" fill="#E3E3E3" fill-opacity="0.47"/>
<path d="M155.41 84.8276L118.634 48.5178C117.053 46.9564 117.047 44.4055 118.622 42.8373L133.721 27.7992C135.277 26.2495 137.791 26.244 139.354 27.7869L189.938 77.7302C190.505 78.2904 190.892 79.0074 191.049 79.7891L194.819 98.5619C195.381 101.36 192.915 103.83 190.116 103.272L171.217 99.5077C170.45 99.3549 169.745 98.9807 169.188 98.4312L155.41 84.8276ZM155.41 84.8276L130.867 110.085M130.867 110.085L136.515 111.96C137.438 112.267 138.222 112.899 138.698 113.747C145.119 125.176 146.085 133.114 146.407 146.545C146.432 147.581 146.853 148.571 147.586 149.302L164.378 166.026M130.867 110.085H115.528M122.844 155.214C115.471 146.614 113.512 140.802 116.777 131.156C117.594 128.74 116.234 126.056 113.734 125.545L113.404 125.478M125.204 172.607C122.691 173.494 117.992 175.6 115.764 176.054M81.7817 157.094C95.8267 174.342 104.341 178.38 115.764 176.054M115.764 176.054L128.979 190M113.404 125.478L100.189 122.778C89.4486 119.987 90.7206 111.675 99.8909 110.133C100.086 110.1 100.288 110.085 100.486 110.085H115.528M113.404 125.478L54.4402 183.424C52.8599 184.977 50.3182 184.949 48.7718 183.362L38.7614 173.09C37.2315 171.52 37.2502 169.011 38.8033 167.464L65.2625 141.111M65.2625 141.111L55.878 131.764C55.5297 131.417 55.2404 131.01 55.0682 130.549C52.0128 122.377 59.8176 115.385 67.6224 119.957M65.2625 141.111L72.0761 145.502C72.8582 146.006 73.7966 146.228 74.7173 146.094C82.7296 144.926 84.3455 142.587 83.6696 136.88M67.6224 119.957L83.6696 136.88M67.6224 119.957C62.4197 106.935 69.5103 104.444 76.118 105.855M83.6696 136.88C92.5811 136.973 96.353 135.731 95.1803 126.712C95.0759 125.91 94.6968 125.166 94.1359 124.583L76.118 105.855M76.118 105.855C76.0786 96.2128 77.5315 92.5088 88.8613 95.9829M88.8613 95.9829L103.021 110.085M88.8613 95.9829C87.7892 86.8272 89.32 83.5437 98.8881 84.6566C99.731 84.7547 100.515 85.1477 101.121 85.7417L110.13 94.5726M115.528 110.085C117.54 106.367 117.787 104.206 116.049 100.657C115.866 100.283 115.613 99.9469 115.315 99.6554L110.13 94.5726M110.13 94.5726V94.5726C111.017 94.5726 111.867 94.2169 112.489 93.5852L136.059 69.6581" stroke="black" stroke-width="7" stroke-linecap="round"/>
</svg>
