<svg width="228" height="228" viewBox="0 0 228 228" fill="none" xmlns="http://www.w3.org/2000/svg">
<circle cx="114" cy="114" r="114" fill="#E3E3E3" fill-opacity="0.47"/>
<path d="M113.108 193.171L96.0631 181.182C95.6549 180.895 95.1541 180.771 94.659 180.834L74.2201 183.445C73.3299 183.559 72.473 183.065 72.1241 182.239L64.443 164.038C64.2499 163.58 63.8932 163.211 63.4426 163.001L44.0299 153.989C43.2451 153.625 42.7836 152.797 42.8861 151.938L45.1927 132.604C45.2525 132.102 45.1205 131.597 44.8233 131.189L32.8578 114.763C32.3466 114.061 32.3466 113.11 32.8578 112.408L44.8184 95.9886C45.1186 95.5766 45.2501 95.0655 45.186 94.5598L42.9041 76.5359C42.7918 75.6486 43.2822 74.7946 44.1051 74.4444L63.4548 66.2099C63.8985 66.0211 64.259 65.6783 64.47 65.2447L73.8066 46.0555C74.179 45.2901 74.995 44.8443 75.8403 44.9444L94.6686 47.1742C95.158 47.2322 95.6515 47.1075 96.0545 46.824L113.148 34.8004C113.832 34.3193 114.743 34.3145 115.432 34.7883L132.959 46.8431C133.354 47.1148 133.834 47.2355 134.31 47.1834L154.836 44.936C155.7 44.8414 156.526 45.3156 156.88 46.1094L165.392 65.1947C165.599 65.6588 165.975 66.0267 166.443 66.2237L184.07 73.6361C184.878 73.9757 185.371 74.8017 185.286 75.6738L183.361 95.4018C183.313 95.8999 183.453 96.398 183.753 96.798L196.086 113.199C196.626 113.917 196.62 114.908 196.072 115.62L183.768 131.612C183.458 132.014 183.313 132.52 183.362 133.025L185.286 152.747C185.371 153.616 184.882 154.44 184.079 154.782L164.726 163.018C164.259 163.216 163.886 163.584 163.68 164.048L155.604 182.275C155.245 183.083 154.399 183.561 153.522 183.448L133.081 180.837C132.57 180.772 132.055 180.906 131.641 181.211L115.445 193.146C114.753 193.656 113.811 193.666 113.108 193.171Z" stroke="black" stroke-width="7"/>
<path d="M64.1429 163.326C71.6848 163.356 77.4128 162.065 79.5341 157.109M44.8572 97.8342H66.2857C73.749 98.0702 77.4442 99.3353 79.1429 102.357M79.1429 102.357C80.0739 104.012 80.4052 106.196 80.4286 109.026V152.135C80.4286 154.103 80.118 155.745 79.5341 157.109M79.1429 102.357L97.5715 63.4301C111.843 64.4949 112.135 73.0881 103.571 97.8342M97.5715 97.8342H142.571C150.714 97.8342 151.143 112.756 137.857 112.756C155 115.658 147.714 128.508 137.857 128.508C149.857 131.824 145.143 144.259 136.143 144.259C146.429 147.99 140.429 157.109 132.714 157.109L89.4286 159.596C85.3754 159.62 83.1528 159.373 79.5341 157.109" stroke="black" stroke-width="7" stroke-linecap="round" stroke-linejoin="round"/>
<path d="M126.714 67.9896L128.857 60.5285M139.143 72.1347C140.482 69.7066 141.233 68.3452 142.571 65.9171M149.429 80.4249C151.437 78.3205 152.563 77.1406 154.571 75.0363M157.143 90.7876C159.821 89.1688 161.322 88.2612 164 86.6425M161.429 101.979C164.776 101.008 166.653 100.463 170 99.4922M164 114.415C166.845 114.415 168.441 114.415 171.286 114.415" stroke="black" stroke-width="7" stroke-linecap="round" stroke-linejoin="round"/>
</svg>
