<svg width="446" height="517" viewBox="0 0 446 517" fill="none" xmlns="http://www.w3.org/2000/svg">
<g clip-path="url(#clip0_204_40)">
<path d="M78.1506 1.80682C78.1506 1.80682 208.085 160.516 214.932 270.622C214.932 270.622 213.992 242.835 168.986 212.861C168.986 212.861 210.425 257.46 192.205 343.544C192.205 343.544 166.094 346.486 172.015 365.05C177.936 383.614 187.976 386.62 187.976 386.62C187.976 386.62 182.681 398.203 184.433 401.587C184.433 401.587 169.813 407.639 175.75 422.557C181.687 437.475 11.8404 490.172 8.2616 498.815C4.68275 507.458 86.4291 519.64 190.732 514.62C294.976 509.741 375.105 502.987 379.505 492.36C379.505 492.36 417.143 475.606 441.287 403.272C441.287 403.272 433.229 412.712 429.454 411.809C429.454 411.809 475.071 287.617 381.054 159.591C381.054 159.591 394.081 188.245 389.146 226.213C389.205 226.071 292.832 69.6701 78.1506 1.80682Z" fill="black"/>
<path d="M394.724 465.616C381.835 476.704 369.447 484.18 369.447 484.18L351.627 481.93L293.049 474.715L227.013 458.261L177.834 445.983C177.834 445.983 178.738 444.199 180.171 441.141C186.887 427.326 205.048 387.876 200.112 384.167C199.97 384.108 199.97 384.108 199.97 384.108C199.829 384.049 199.687 383.99 199.404 383.873C199.121 383.755 198.838 383.638 198.554 383.52C191.875 380.415 189.745 370.731 190.461 363.391C191.119 356.192 205.049 353.009 207.076 352.522C207.276 352.439 207.276 352.439 207.276 352.439C208.435 348.437 209.453 344.376 210.187 340.198C215.666 308.933 208.595 275.115 208.595 275.115C217.548 283.149 220.594 320.277 220.594 320.277L224.334 298.419C243.129 204.938 172.131 101.082 132.204 51.6322C131.896 51.1725 131.53 50.8544 131.364 50.4535C116.98 32.6937 106.748 22.137 106.748 22.137C156.236 41.6839 199.417 67.2464 236.116 94.4353C236.766 94.8708 237.415 95.3064 238.006 95.8837C340.795 172.258 393.369 260.497 393.369 260.497C397.439 255.877 399.47 245.761 400.431 237.028C401.382 229.121 401.38 222.313 401.415 221.829C414.529 241.054 419.986 269.553 421.414 299.368C422.261 316.158 421.765 333.386 420.654 349.694C417.665 393.781 409.874 430.23 409.874 430.23L416.096 428.828L422.719 427.26C419.588 441.236 406.894 455.061 394.724 465.616Z" fill="#D33C3C"/>
<path d="M180.18 441.169C186.897 427.352 205.059 387.899 200.123 384.19C199.981 384.131 199.981 384.131 199.981 384.131C199.839 384.072 199.698 384.013 199.415 383.896C199.131 383.778 198.848 383.661 198.565 383.543C191.885 380.438 189.755 370.753 190.471 363.412C191.129 356.213 205.06 353.029 207.087 352.542C207.287 352.459 207.287 352.46 207.287 352.46C208.446 348.457 209.464 344.397 210.199 340.218C215.678 308.951 208.606 275.13 208.606 275.13C217.56 283.164 220.606 320.295 220.606 320.295L224.347 298.435C243.144 204.948 172.14 101.083 132.209 51.6299C134.489 53.7387 280.864 193.208 229.129 330.973C227.569 335.141 226.068 339.167 224.767 343.111C202.026 410.053 212.302 442.547 227.026 458.29L177.843 446.01C177.843 446.01 178.747 444.227 180.18 441.169Z" fill="#BA2D2D"/>
<path d="M394.716 465.608C381.827 476.696 369.438 484.172 369.438 484.172L351.618 481.922C357.707 461.204 365.474 436.035 369.484 424.748C373.929 412.811 381.368 377.212 383.392 339.862C384.786 312.047 383.09 283.282 374.547 262.633C354.666 214.862 239.623 97.5347 237.851 95.8029C340.644 172.18 393.219 260.422 393.219 260.422C397.29 255.802 399.321 245.686 400.282 236.953C401.233 229.046 401.231 222.237 401.266 221.753C414.38 240.979 419.838 269.479 421.265 299.295C422.113 316.085 421.617 333.314 420.506 349.623C417.517 393.712 409.725 430.162 409.725 430.162L415.948 428.76L422.571 427.192C419.581 441.227 406.886 455.052 394.716 465.608Z" fill="#F47676"/>
<path d="M394.69 465.616C381.801 476.704 369.413 484.18 369.413 484.18L351.593 481.93L293.016 474.716L226.98 458.262L177.801 445.983C177.801 445.983 178.705 444.2 180.138 441.142C186.854 427.326 205.015 387.877 200.079 384.167C199.937 384.109 199.937 384.109 199.937 384.109C199.796 384.05 199.654 383.991 199.371 383.874C199.088 383.756 198.804 383.638 198.521 383.521C191.842 380.416 189.712 370.732 190.428 363.392C191.086 356.193 205.015 353.01 207.042 352.523C207.243 352.44 207.243 352.44 207.243 352.44C208.402 348.438 209.42 344.378 210.154 340.199C210.154 340.199 219.83 338.073 224.638 342.891C226.327 344.422 224.091 364.249 230.322 366.835C230.322 366.835 251.046 306.367 293.383 328.757C293.383 328.757 355.841 307.363 370.261 343.07C370.261 343.07 375.835 341.232 383.483 339.593C397.838 336.585 418.81 334.831 420.796 349.27C417.807 393.357 410.016 429.805 410.016 429.805L416.238 428.404L422.861 426.836C419.554 441.236 406.86 455.061 394.69 465.616Z" fill="#E2E2E2"/>
<path d="M241.644 416.05L243.62 419.693L254.685 422.625L255.343 415.427L241.644 416.05Z" fill="#BA2D2D"/>
<path d="M318.562 376.571C303.198 376.005 266.363 399.235 266.363 399.235C260.83 409.392 255.56 421.317 255.56 421.317L237.172 412.024C237.172 412.024 237.089 411.823 236.923 411.422C236.84 411.222 236.757 411.021 236.591 410.62C234.113 403.78 224.642 372.95 254.845 358.922C259.369 356.814 264.024 355.592 268.81 355.254C299.047 352.364 331.792 377.082 318.562 376.571Z" fill="#BABABA"/>
<path d="M218.872 441.805C198.674 436.078 183.766 440.018 180.278 441.227C186.854 427.352 205.157 387.958 200.221 384.249C200.079 384.19 200.079 384.19 200.079 384.19C199.938 384.131 199.796 384.072 199.513 383.955C199.23 383.837 198.946 383.719 198.663 383.602L203.865 372.643L224.696 394.076L236.709 410.354C236.567 410.295 241.879 448.367 218.872 441.805Z" fill="#BABABA"/>
<path d="M213.346 395.837C213.346 395.837 232.265 417.47 232.694 419.641C233.123 421.811 246.407 420.186 246.407 420.186L251.715 409.772L244.751 399.741L214.902 389.675L213.346 395.837Z" fill="#BABABA"/>
<path d="M230.778 407.054C230.436 407.078 230.095 407.102 229.753 407.127C224.542 407.288 203.112 386.106 200.089 384.187C199.948 384.128 199.948 384.128 199.948 384.128C199.806 384.069 199.665 384.011 199.381 383.893C192.042 381.179 189.747 371.094 190.439 363.411C190.414 363.069 190.59 362.644 190.566 362.302C192.522 355.975 205.026 353.029 206.853 352.625C206.994 352.684 206.936 352.826 207.077 352.885C209.254 356.445 212.743 362.044 216.091 367.585C221.118 375.482 226.179 382.896 227.985 384.144C229.992 385.309 231.851 389.236 233.402 392.702C234.812 396.11 235.714 399.141 235.714 399.141C235.714 399.141 235.587 400.25 235.2 401.584C234.863 403.603 233.548 406.377 230.778 407.054Z" fill="#BABABA"/>
<path d="M257.013 473.083C257.013 473.083 250.186 472.739 241.809 468.93L257.013 473.083Z" fill="#BA2D2D"/>
<path d="M369.826 486.382C157.529 512.982 35.7088 498.608 36.8235 495.916C37.1168 495.208 54.9404 487.83 79.8561 477.751C80.8574 477.337 81.8587 476.922 83.0016 476.567C142.27 452.855 237.506 416.015 237.506 416.015C267.333 420.925 271.951 436.622 278.511 444.824C285.012 453.168 322 466.031 331.338 454.3C338.393 445.275 340.22 433.249 353.021 431.59C353.163 431.649 353.221 431.507 353.363 431.566C354.589 431.41 355.956 431.314 357.407 431.418C360.366 431.484 363.916 432.128 368.057 433.348C382.213 437.232 382.799 447.437 380.07 456.432C377.493 464.66 372.166 471.913 372.166 471.913C380.442 477.174 369.826 486.382 369.826 486.382Z" fill="#FF8500"/>
<path d="M394.667 465.601C407.263 448.411 413.277 436.294 416.104 428.666L422.729 427.098C419.537 441.217 406.84 455.044 394.667 465.601Z" fill="#FFFDFD"/>
<path d="M369.825 486.382C157.529 512.982 35.7087 498.608 36.8234 495.916C37.1167 495.208 54.9402 487.83 79.8559 477.751L83.0601 476.425C81.2233 477.655 40.355 505.02 166.557 493.984C295.694 482.672 372.825 483.144 363.175 473.991C363.175 473.991 379.261 441.154 357.406 431.418C360.366 431.484 363.916 432.128 368.057 433.349C395.46 440.905 372.083 471.712 372.083 471.712C380.442 477.174 369.825 486.382 369.825 486.382Z" fill="#FFA95C"/>
<path d="M323.646 427.993C314.302 430.922 290.395 432.953 285.405 431.379C280.355 429.947 262.667 416.959 257.792 419.917C252.775 422.815 266.357 399.231 266.357 399.231C266.357 399.231 269.23 397.102 273.846 394.369C282.596 388.869 297.588 380.315 309.74 378.22C314.961 377.233 319.654 377.521 323.043 379.757C338.119 389.835 340.602 387.046 340.417 395.106C340.15 402.965 333.049 424.923 323.646 427.993Z" fill="#FCFCFC" stroke="#2D2D2D" stroke-width="1.4709" stroke-miterlimit="10"/>
<path d="M227.386 418.441C210.331 421.157 197.058 428.764 197.058 428.764C191.317 423.393 197.061 389.082 197.061 389.082C199.385 389.881 201.875 391.081 204.19 392.706C206.646 394.389 208.984 396.356 211.264 398.465C215.316 402.305 218.85 406.595 221.651 410.249C222.325 411.026 222.857 411.745 223.331 412.606C225.849 416.142 227.386 418.441 227.386 418.441Z" fill="#FCFCFC" stroke="#1E1E1E" stroke-width="1.1494" stroke-miterlimit="10"/>
<path d="M242.934 451.79C243.873 449.524 245.543 447.893 247.722 446.639C249.842 445.527 252.411 444.933 254.911 445.307C257.411 445.681 259.902 446.881 261.473 448.695C261.981 449.072 262.289 449.532 262.537 450.133C262.845 450.593 263.094 451.194 263.401 451.654C263.816 452.656 264.113 453.942 264.328 455.027C263.195 454.556 262.204 454.145 261.271 453.592C260.846 453.416 260.28 453.18 259.855 453.004L259.147 452.71C258.864 452.593 258.722 452.534 258.581 452.475C256.882 451.77 255.348 451.465 253.957 451.219C252.423 450.915 250.773 450.894 249.005 451.156C247.295 451.276 245.327 451.621 242.934 451.79Z" fill="#232323"/>
<path d="M314.021 402.285C309.562 413.053 297.345 418.11 286.583 413.643C278.936 410.469 274.241 403.372 273.707 395.845C282.457 390.345 297.449 381.79 309.601 379.695C315.367 385.409 317.307 394.351 314.021 402.285Z" fill="black"/>
<path d="M221.594 410.389C218.77 413.201 214.623 414.8 210.448 414.063C203.631 412.894 199.126 406.541 200.233 399.861C200.722 397.075 202.12 394.501 204.133 392.846C206.589 394.53 208.927 396.497 211.207 398.605C215.117 402.387 218.793 406.735 221.594 410.389Z" fill="black"/>
<path d="M380.071 456.39C377.178 448.548 368.796 431.123 353.305 431.666C354.531 431.51 355.898 431.414 357.349 431.518C360.308 431.584 363.858 432.228 367.999 433.448C382.355 437.249 382.941 447.454 380.071 456.39Z" fill="#FFFDFD"/>
<path d="M293.48 328.936C293.48 328.936 311.526 315.01 322.925 313.93C322.925 313.93 314.291 323.961 318.994 323.423C323.697 322.884 358.282 301.877 368.538 301.154C368.538 301.154 349.233 322.527 354.642 327.097C354.642 327.097 369.219 317.541 379.099 317.325C379.099 317.325 368.685 333.258 383.518 339.913C383.518 339.913 390.914 324.056 398.88 322.05C398.88 322.05 392.775 334.79 399.796 337.871C399.796 337.871 409.831 327.26 415.829 325.599C415.829 325.599 415.976 334.46 420.829 349.59L411.677 371.691L322.622 357.138L293.48 328.936Z" fill="#E2E2E2"/>
</g>
<defs>
<clipPath id="clip0_204_40">
<rect width="446" height="517" fill="white"/>
</clipPath>
</defs>
</svg>
