<svg width="228" height="228" viewBox="0 0 228 228" fill="none" xmlns="http://www.w3.org/2000/svg">
<circle cx="114" cy="114" r="114" fill="#E3E3E3" fill-opacity="0.47"/>
<path d="M111.771 205L187.149 129.826C189.674 127.308 187.891 122.994 184.325 122.994H164.811C162.602 122.994 160.811 121.203 160.811 118.994V44C160.811 41.7909 159.02 40 156.811 40H111.771" stroke="black" stroke-width="7"/>
<path d="M116.229 205L40.8509 129.826C38.3257 127.308 40.1092 122.994 43.6755 122.994H63.1889C65.398 122.994 67.1889 121.203 67.1889 118.994V44C67.1889 41.7909 68.9797 40 71.1889 40H116.229" stroke="black" stroke-width="7"/>
<path d="M107.313 74.5808V118.911M107.313 74.5808C150.409 74.5808 156.353 118.911 107.313 118.911M107.313 74.5808H91.4613M107.313 152.635V118.911M107.313 118.911H91.4613M91.4613 134.225H123.164" stroke="black" stroke-width="7" stroke-linecap="round" stroke-linejoin="round"/>
</svg>
