<svg width="228" height="228" viewBox="0 0 228 228" fill="none" xmlns="http://www.w3.org/2000/svg">
<circle cx="114" cy="114" r="114" fill="#E3E3E3" fill-opacity="0.47"/>
<path d="M50.9609 57.3854H82.0244L84.445 48.7254C86.8655 40.5749 87.7301 38.6594 95.7408 39.0467H135.276C143.748 39.0467 144.958 40.5749 147.379 46.1784L151.413 57.3854H172.795C192.966 57.3854 197 63.4982 197 92.5343V148.5C197 169.895 191.755 182 177.232 182H50.9609C36.0342 182 32 165.82 32 148.5V89.4779C32 70.1205 36.4377 57.3854 50.9609 57.3854Z" stroke="black" stroke-width="7"/>
<path d="M156.69 118C156.69 140.216 137.775 158.5 114.095 158.5C90.4153 158.5 71.5 140.216 71.5 118C71.5 95.7841 90.4153 77.5 114.095 77.5C137.775 77.5 156.69 95.7841 156.69 118Z" stroke="black" stroke-width="7"/>
<path d="M47.574 74.0327H64.4107" stroke="black" stroke-width="7" stroke-linecap="round"/>
<path d="M47.1531 86.0588H63.9898" stroke="black" stroke-width="7" stroke-linecap="round"/>
</svg>
