<?xml version="1.0" standalone="no"?>
<!DOCTYPE svg PUBLIC "-//W3C//DTD SVG 20010904//EN"
 "http://www.w3.org/TR/2001/REC-SVG-20010904/DTD/svg10.dtd">
<svg version="1.0" xmlns="http://www.w3.org/2000/svg"
 width="589.000000pt" height="589.000000pt" viewBox="0 0 589.000000 589.000000"
 preserveAspectRatio="xMidYMid meet">
<metadata>
Created by potrace 1.14, written by Peter Selinger 2001-2017
</metadata>
<g transform="translate(0.000000,589.000000) scale(0.100000,-0.100000)"
fill="#000000" stroke="none">
<path d="M1697 5877 c4 -7 56 -76 114 -153 58 -77 136 -185 174 -240 38 -54
72 -101 75 -104 13 -11 320 -480 376 -575 32 -55 62 -101 66 -103 5 -2 8 -7 8
-11 0 -4 31 -62 69 -128 271 -473 474 -947 566 -1319 35 -141 34 -138 51 -269
3 -27 9 -54 12 -60 3 -7 2 -7 -5 0 -5 6 -17 31 -27 56 -56 154 -219 342 -429
497 -57 43 -86 56 -51 25 52 -47 161 -253 207 -393 29 -87 64 -225 72 -290 3
-25 8 -63 12 -85 17 -117 4 -469 -22 -585 -5 -22 -14 -71 -19 -109 -2 -8 -25
-21 -52 -28 -124 -35 -194 -96 -194 -171 0 -95 72 -228 162 -298 l27 -21 -19
-56 c-11 -31 -20 -69 -20 -84 0 -20 -8 -33 -29 -45 -66 -37 -96 -119 -77 -208
6 -27 3 -40 -11 -56 -48 -56 -239 -153 -498 -253 -88 -35 -180 -71 -205 -81
-25 -11 -56 -22 -70 -26 -14 -3 -49 -17 -78 -30 -29 -13 -57 -24 -62 -24 -5 0
-24 -6 -42 -14 -37 -16 -240 -91 -248 -91 -3 0 -18 -6 -35 -12 -16 -7 -129
-49 -250 -93 -315 -117 -440 -173 -440 -199 0 -35 183 -92 372 -117 20 -2 48
-6 62 -8 14 -3 45 -7 69 -11 23 -4 52 -8 65 -9 58 -7 148 -17 202 -21 33 -3
80 -7 105 -10 25 -2 99 -7 165 -11 66 -3 147 -8 180 -10 72 -4 789 -4 895 0
41 2 156 7 255 10 99 4 207 9 240 11 33 2 123 6 200 10 77 3 163 8 190 10 28
2 102 6 165 10 63 3 135 8 160 10 25 3 77 7 115 10 98 7 183 14 232 20 24 3
64 7 90 11 99 11 120 14 203 24 159 21 340 75 340 102 0 5 10 12 23 17 58 22
196 143 292 256 33 39 63 72 66 75 3 3 30 43 61 90 102 156 197 350 254 515
l24 69 -42 -39 c-24 -22 -44 -43 -46 -47 -4 -9 -42 -11 -42 -2 0 3 13 55 30
117 16 62 32 126 35 142 12 60 25 141 31 190 3 28 7 61 9 75 9 67 18 248 18
355 0 113 -11 344 -18 355 -1 3 -6 30 -9 60 -6 49 -29 192 -40 245 -37 177
-134 490 -184 594 -12 25 -22 49 -22 55 0 11 -130 271 -165 331 -13 22 -27 47
-31 55 -4 8 -19 33 -33 55 -14 22 -28 45 -31 50 -11 22 -133 196 -136 193 -1
-2 10 -42 26 -89 52 -158 74 -370 60 -586 -4 -53 -15 -68 -27 -35 -4 9 -11 22
-15 27 -5 6 -43 57 -85 115 -42 58 -88 119 -102 136 -14 17 -33 40 -41 50 -18
23 -103 125 -145 174 -113 131 -401 422 -549 555 -49 44 -105 95 -125 113 -64
59 -284 236 -356 287 -15 11 -36 28 -47 38 -10 9 -22 17 -27 17 -5 0 -11 4
-13 8 -7 18 -428 303 -528 358 -19 10 -37 21 -40 24 -7 7 -40 27 -80 48 -19
10 -91 50 -160 88 -248 138 -628 317 -865 406 -202 76 -207 78 -277 78 -53 0
-67 -3 -61 -13z m1510 -3009 c-3 -7 -5 -2 -5 12 0 14 2 19 5 13 2 -7 2 -19 0
-25z"/>
</g>
</svg>
