<svg width="228" height="228" viewBox="0 0 228 228" fill="none" xmlns="http://www.w3.org/2000/svg">
<circle cx="114" cy="114" r="113.5" fill="#E3E3E3" fill-opacity="0.47" stroke="#F2F2F2"/>
<path d="M99 156C99 168.15 89.1503 178 77 178C64.8497 178 55 168.15 55 156M99 156C99 143.85 89.1503 134 77 134C64.8497 134 55 143.85 55 156M99 156H148M55 156L44.7769 156.001C42.5327 156.001 40.7277 154.155 40.7779 151.911L41.5 119.645M193 156C193 168.15 183.15 178 171 178C158.85 178 149 168.15 149 156C149 143.85 158.85 134 171 134C183.15 134 193 143.85 193 156ZM193 156L200 156.001C202.209 156.001 204 154.21 204 152.001V125.337C203.522 113.528 199.134 110.69 187.314 109.298M187.314 109.298H151.398C149.111 109.298 147.29 107.384 147.403 105.1L149.68 59M187.314 109.298C177.243 80.0571 167.787 62.3023 149.68 59M149.68 59L47.3895 58.5183C45.224 58.5081 43.4436 60.2231 43.3728 62.3875L42.8646 77.9247M58.4379 77.9247H42.8646M42.8646 77.9247H29.3254M42.8646 77.9247L42.2034 98.1398M73.3491 98.1398H42.2034M42.2034 98.1398H24M42.2034 98.1398L41.5 119.645M41.5 119.645H24.2437" stroke="black" stroke-width="7" stroke-linecap="round" stroke-linejoin="round"/>
</svg>
