<svg width="228" height="228" viewBox="0 0 228 228" fill="none" xmlns="http://www.w3.org/2000/svg">
<circle cx="114" cy="114" r="114" fill="#E3E3E3" fill-opacity="0.47"/>
<path d="M98.8508 161.105H84C82.067 161.105 80.5 162.672 80.5 164.605V178C80.5 179.933 82.067 181.5 84 181.5H102.351H125.649H144C145.933 181.5 147.5 179.933 147.5 178V164.605C147.5 162.672 145.933 161.105 144 161.105H129.149V51C129.149 49.067 127.582 47.5 125.649 47.5H102.426C101.646 47.5 100.887 47.7609 100.272 48.2413L81.8461 62.628C80.9966 63.2913 80.5 64.3089 80.5 65.3867V70.8438C80.5 72.7767 82.067 74.3438 84 74.3438H84.0116H84.0234H84.0356H84.048H84.0607H84.0737H84.087H84.1006H84.1144H84.1285H84.1429H84.1575H84.1725H84.1877H84.2031H84.2189H84.2349H84.2511H84.2677H84.2845H84.3016H84.3189H84.3365H84.3543H84.3724H84.3908H84.4094H84.4283H84.4474H84.4668H84.4865H84.5064H84.5265H84.5469H84.5675H84.5884H84.6096H84.6309H84.6526H84.6744H84.6965H84.7189H84.7415H84.7643H84.7873H84.8106H84.8342H84.8579H84.8819H84.9061H84.9306H84.9553H84.9802H85.0053H85.0307H85.0563H85.0821H85.1081H85.1344H85.1609H85.1876H85.2145H85.2416H85.269H85.2965H85.3243H85.3523H85.3805H85.4089H85.4375H85.4663H85.4954H85.5246H85.554H85.5837H85.6135H85.6436H85.6738H85.7043H85.7349H85.7657H85.7968H85.828H85.8594H85.891H85.9229H85.9548H85.987H86.0194H86.052H86.0847H86.1176H86.1507H86.184H86.2175H86.2512H86.285H86.319H86.3532H86.3876H86.4221H86.4568H86.4917H86.5267H86.562H86.5974H86.6329H86.6686H86.7045H86.7406H86.7768H86.8132H86.8497H86.8864H86.9233H86.9603H86.9975H87.0348H87.0723H87.1099H87.1477H87.1857H87.2237H87.262H87.3004H87.3389H87.3776H87.4164H87.4554H87.4945H87.5337H87.5731H87.6126H87.6523H87.6921H87.732H87.7721H87.8123H87.8526H87.8931H87.9337H87.9744H88.0152H88.0562H88.0973H88.1385H88.1799H88.2213H88.2629H88.3046H88.3465H88.3884H88.4305H88.4726H88.5149H88.5573H88.5998H88.6425H88.6852H88.728H88.771H88.814H88.8572H88.9005H88.9438H88.9873H89.0309H89.0745H89.1183H89.1622H89.2061H89.2502H89.2943H89.3386H89.3829H89.4273H89.4718H89.5164H89.5611H89.6059H89.6508H89.6957H89.7407H89.7858H89.831H89.8763H89.9216H89.967H90.0125H90.0581H90.1038H90.1495H90.1953H90.2411H90.2871H90.3331H90.3791H90.4253H90.4715H90.5177H90.564H90.6104H90.6569H90.7034H90.7499H90.7965H90.8432H90.8899H90.9367H90.9836H91.0304H91.0774H91.1244H91.1714H91.2185H91.2656H91.3128H91.36H91.4073H91.4546H91.5019H91.5493H91.5967H91.6441H91.6916H91.7391H91.7867H91.8343H91.8819H91.9296H91.9772H92.0249H92.0727H92.1204H92.1682H92.216H92.2639H92.3117H92.3596H92.4075H92.4554H92.5033H92.5512H92.5992H92.6472H92.6952H92.7431H92.7911H92.8392H92.8872H92.9352H92.9832H93.0313H93.0793H93.1273H93.1754H93.2234H93.2715H93.3195H93.3675H93.4156H93.4636H93.5116H93.5596H93.6076H93.6556H93.7036H93.7516H93.7995H93.8475H93.8954H93.9433H93.9912H94.0391H94.0869H94.1347H94.1826H94.2303H94.2781H94.3258H94.3735H94.4212H94.4689H94.5165H94.5641H94.6116H94.6592H94.7066H94.7541H94.8015H94.8489H94.8962H94.9435H94.9908H95.038H95.0852H95.1323H95.1794H95.2264H95.2734H95.3203H95.3672H95.4141H95.4608H95.5076H95.5542H95.6009H95.6474H95.6939H95.7404H95.7867H95.8331H95.8793H95.9255H95.9717H96.0177H96.0637H96.1096H96.1555H96.2013H96.247H96.2927H96.3382H96.3837H96.4292H96.4745H96.5198H96.565H96.6101H96.6551H96.7H96.7449H96.7897H96.8343H96.879H96.9235H96.9679H97.0122H97.0565H97.1006H97.1447H97.1886H97.2325H97.2763H97.3199H97.3635H97.407H97.4503H97.4936H97.5367H97.5798H97.6227H97.6656H97.7083H97.7509H97.7935H97.8359H97.8781H97.9203H97.9624H98.0043H98.0462H98.0879H98.1294H98.1709H98.2123H98.2535H98.2946H98.3356H98.3764H98.4171H98.4577H98.4982H98.5385H98.5787H98.6188H98.6587H98.6985H98.7382H98.7777H98.8171H98.8563H98.8634C98.8698 75.6585 98.878 77.1756 98.8863 78.7154L98.8885 79.1315C98.9074 82.635 98.9262 86.1744 98.9262 87.7109V87.729V87.747V87.7647V87.7824V87.7999V87.8173V87.8346V87.8517V87.8686V87.8855V87.9022V87.9188V87.9352V87.9515V87.9677V87.9837V87.9997V88.0155V88.0311V88.0467V88.0621V88.0774V88.0925V88.1076V88.1225V88.1373V88.152V88.1666V88.181V88.1953V88.2095V88.2236V88.2376V88.2515V88.2652V88.2789V88.2924V88.3058V88.3191V88.3323V88.3454V88.3584V88.3713V88.384V88.3967V88.4093V88.4217V88.4341V88.4463V88.4585V88.4705V88.4825V88.4943V88.5061V88.5177V88.5293V88.5408V88.5521V88.5634V88.5746V88.5857V88.5967V88.6076V88.6184V88.6292V88.6398V88.6504V88.6609V88.6712V88.6815V88.6918V88.7019V88.712V88.7219V88.7318V88.7417V88.7514V88.7611V88.7706V88.7801V88.7896V88.7989V88.8082V88.8174V88.8266V88.8356V88.8446V88.8536V88.8624V88.8712V88.8799V88.8886V88.8972V88.9057V88.9142V88.9226V88.9309V88.9392V88.9474V88.9556V88.9637V88.9718V88.9797V88.9877V88.9955V89.0034V89.0111V89.0189V89.0265V89.0341V89.0417V89.0492V89.0567V89.0641V89.0715V89.0788V89.0861V89.0933V89.1005V89.1076V89.1148V89.1218V89.1288V89.1358V89.1428V89.1497V89.1566V89.1634V89.1702V89.177V89.1837V89.1904V89.1971V89.2037V89.2103V89.2169V89.2234V89.23V89.2365V89.2429V89.2494V89.2558V89.2622V89.2686V89.2749V89.2812V89.2876V89.2938V89.3001V89.3064V89.3126V89.3188V89.325V89.3312V89.3374V89.3436V89.3497V89.3559V89.362V89.3681V89.3742V89.3803V89.3864V89.3925V89.3986V89.4047V89.4108V89.4169V89.4229V89.429V89.4351V89.4412V89.4472V89.4533V89.4594V89.4655V89.4716V89.4777V89.4838V89.4899V89.496V89.5021V89.5082V89.5144V89.5205V89.5267V89.5329V89.5391V89.5453V89.5515V89.5578V89.564V89.5703V89.5766V89.5829V89.5893V89.5956V89.602V89.6084V89.6148V89.6213V89.6278V89.6343V89.6408V89.6474V89.6539V89.6606V89.6672V89.6739V89.6806V89.6873V89.6941V89.7009V89.7078V89.7147V89.7216V89.7285V89.7355V89.7426V89.7497V89.7568V89.764V89.7712V89.7784V89.7857V89.793V89.8004V89.8079V89.8153V89.8229V89.8305V89.8381V89.8458V89.8535V89.8613V89.8691V89.877V89.885V89.893V89.9011V89.9092V89.9174V89.9256V89.9339V89.9423V89.9507V89.9592V89.9677V89.9763V89.985V89.9938V90.0026V90.0115V90.0204V90.0294V90.0385V90.0477V90.0569V90.0662V90.0756V90.0851V90.0946V90.1042V90.1139V90.1237V90.1335V90.1434V90.1535V90.1635V90.1737V90.184V90.1943V90.2047V90.2152V90.2258V90.2365V90.2472V90.2581V90.269V90.2801V90.2912V90.3024V90.3137V90.3251V90.3366V90.3482V90.3599V90.3717V90.3836V90.3956V90.4076V90.4198V90.4321V90.4445V90.457V90.4696V90.4823V90.4951V90.508V90.521V90.5341V90.5474V90.5607V90.5742V90.5877V90.6014V90.6152V90.6291V90.6431V90.6573V90.6715V90.6859V90.7004V90.715V90.7297V90.7445V90.7595V90.7746V90.7898V90.8051V90.8206V90.8362V90.8519V90.8677V90.8837V90.8998V90.916V90.9324V90.9489V90.9655V90.9822V90.9991V91.0161V91.0333V91.0506V91.068V91.0856V91.1033V91.1211V91.1391V91.1572V91.1755V91.1939V91.2125V91.2312V91.25V91.269V91.2881V91.3074V91.3269V91.3464V91.3662V91.3861V91.4061V91.4263V91.4466V91.4671V91.4878V91.5086V91.5296V91.5507V91.572V91.5934V91.615V91.6368V91.6587V91.6808V91.7031V91.7255V91.7481V91.7708V91.7937V91.8168V91.8401V91.8635V91.8871V91.9109V91.9348V91.9589V91.9832V92.0076V92.0323V92.0571V92.0821V92.1072V92.1326V92.1581V92.1838V92.2097V92.2357V92.262V92.2884V92.315V92.3418V92.3688V92.396V92.4234V92.4509V92.4787V92.5066V92.5347V92.563V92.5915V92.6203V92.6491V92.6782V92.7075V92.737V92.7667V92.7966V92.8267V92.8569V92.8874V92.9181V92.949V92.9801V93.0114V93.0429V93.0746V93.1065V93.1386V93.1709V93.2035V93.2362V93.2692V93.3024V93.3358V93.3694V93.4032V93.4372V93.4714V93.5059V93.5406V93.5755V93.6106V93.6459V93.6815V93.7173V93.7533V93.7895V93.826V93.8627V93.8996V93.9367V93.974V94.0116V94.0495V94.0875V94.1258V94.1643V94.203V94.242V94.2812V94.3207V94.3604V94.4003V94.4404V94.4808V94.5215V94.5623V94.6035V94.6448V94.6864V94.7283V94.7704V94.8127V94.8553V94.8981V94.9412V94.9845V95.0281V95.0719V95.116V95.1603V95.2049V95.2497V95.2948V95.3402V95.3857V95.4316V95.4777V95.5241V95.5707V95.6176V95.6648V95.7122V95.7599V95.8078V95.856V95.9045V95.9532V96.0022V96.0515V96.101V96.1509V96.2009V96.2513V96.3019V96.3528V96.404V96.4554V96.5071V96.5591V96.6114V96.664V96.7168V96.7699V96.8233V96.877V96.9309V96.9852V97.0099C98.876 99.9622 98.8508 102.464 98.8508 104.51V161.105Z" stroke="black" stroke-width="7" stroke-linejoin="round"/>
</svg>
