<?xml version="1.0" standalone="no"?>
<!DOCTYPE svg PUBLIC "-//W3C//DTD SVG 20010904//EN"
 "http://www.w3.org/TR/2001/REC-SVG-20010904/DTD/svg10.dtd">
<svg version="1.0" xmlns="http://www.w3.org/2000/svg"
 width="70.000000pt" height="70.000000pt" viewBox="0 0 70.000000 70.000000"
 preserveAspectRatio="xMidYMid meet">
<metadata>
Created by potrace 1.14, written by Peter Selinger 2001-2017
</metadata>
<g transform="translate(0.000000,70.000000) scale(0.100000,-0.100000)"
fill="#000000" stroke="none">
<path d="M289 572 c-16 -8 -29 -17 -29 -21 0 -4 -15 -8 -32 -9 -76 -6 -94 -42
-97 -187 -1 -55 -7 -105 -13 -112 -17 -21 -46 -15 -60 11 -11 19 -17 22 -36
15 -18 -7 -22 -14 -17 -31 26 -86 156 -103 193 -26 7 15 14 41 15 58 l2 30 85
0 c61 0 95 5 120 18 104 52 108 202 5 252 -47 23 -91 23 -136 2z m-31 -175 c4
-20 -25 -34 -40 -19 -15 15 -1 44 19 40 10 -2 19 -11 21 -21z"/>
<path d="M516 518 c31 -61 13 -155 -40 -202 -38 -34 -85 -47 -160 -45 l-71 2
-2 -76 -3 -77 39 0 40 0 11 55 11 55 57 1 c31 0 86 1 122 2 l65 2 5 -60 5 -60
39 -3 c21 -2 42 0 47 5 4 4 11 78 14 164 6 127 4 162 -8 192 -19 44 -60 67
-133 72 l-54 4 16 -31z"/>
<path d="M373 202 c-7 -4 -15 -27 -19 -51 -7 -42 -6 -43 17 -36 31 10 28 6 35
53 6 43 -4 53 -33 34z"/>
<path d="M514 160 c2 -25 5 -46 5 -47 1 -1 9 0 19 2 9 2 21 4 25 4 7 1 5 53
-2 88 -1 2 -12 2 -26 1 -24 -2 -26 -5 -21 -48z"/>
</g>
</svg>
