<svg width="25" height="25" viewBox="0 0 25 25" fill="none" xmlns="http://www.w3.org/2000/svg">
<path d="M20.8333 7.29199H4.16659C3.01599 7.29199 2.08325 8.22473 2.08325 9.37533V19.792C2.08325 20.9426 3.01599 21.8753 4.16659 21.8753H20.8333C21.9838 21.8753 22.9166 20.9426 22.9166 19.792V9.37533C22.9166 8.22473 21.9838 7.29199 20.8333 7.29199Z" stroke="#FF862F" stroke-width="2" stroke-linecap="round" stroke-linejoin="round"/>
<path d="M16.6666 21.875V5.20833C16.6666 4.6558 16.4471 4.12589 16.0564 3.73519C15.6657 3.34449 15.1358 3.125 14.5833 3.125H10.4166C9.86405 3.125 9.33415 3.34449 8.94345 3.73519C8.55275 4.12589 8.33325 4.6558 8.33325 5.20833V21.875" stroke="#FF862F" stroke-width="2" stroke-linecap="round" stroke-linejoin="round"/>
</svg>
