<?xml version="1.0" encoding="utf-8"?><svg xmlns="http://www.w3.org/2000/svg" xmlns:xlink="http://www.w3.org/1999/xlink"><symbol fill="none" viewBox="0 0 32 32" id="arrow" xmlns="http://www.w3.org/2000/svg"><g clip-path="url(#aclip0_8752_925)" stroke="#A65CF0" stroke-width="2"><path d="M14 11l5 5-5 5" stroke-linecap="round" stroke-linejoin="round"/><circle cx="16" cy="16" r="15"/></g><defs><clipPath id="aclip0_8752_925"><path fill="#fff" d="M0 0h32v32H0z"/></clipPath></defs></symbol><symbol fill="none" viewBox="0 0 30 28" id="basket" xmlns="http://www.w3.org/2000/svg"><path d="M28.816 19.85H8.902l1-2.114 16.613-.03c.562 0 1.044-.417 1.144-.994l2.3-13.366a1.24 1.24 0 00-.25-.986 1.177 1.177 0 00-.399-.318 1.135 1.135 0 00-.49-.116L7.684 1.853l-.18-.881C7.39.41 6.901 0 6.346 0H1.18C.867 0 .567.13.346.359A1.25 1.25 0 000 1.225c0 .325.124.637.346.867.221.23.521.358.834.358h4.21l.79 3.895 1.943 9.764-2.502 4.238a1.253 1.253 0 00-.1 1.277c.2.413.605.673 1.054.673h2.1a3.645 3.645 0 00-.69 2.142c0 1.964 1.539 3.561 3.432 3.561s3.43-1.597 3.43-3.561c0-.774-.247-1.527-.688-2.142h5.387a3.645 3.645 0 00-.689 2.142c0 1.964 1.539 3.561 3.431 3.561 1.893 0 3.431-1.597 3.431-3.561 0-.774-.247-1.527-.688-2.142h3.789c.648 0 1.18-.548 1.18-1.225a1.253 1.253 0 00-.35-.864 1.163 1.163 0 00-.834-.358zM8.176 4.27l19.256.065-1.886 10.961-15.126.028L8.176 4.27zm3.24 21.266c-.581 0-1.056-.493-1.056-1.097s.475-1.097 1.057-1.097 1.056.493 1.056 1.097c0 .29-.11.57-.309.775a1.037 1.037 0 01-.747.322zm10.872 0c-.581 0-1.056-.493-1.056-1.097s.475-1.097 1.056-1.097c.582 0 1.057.493 1.057 1.097 0 .29-.111.57-.31.775a1.038 1.038 0 01-.747.322z" fill="#A65CF0"/></symbol><symbol fill="#FF862F" viewBox="0 0 18 18" id="call" xmlns="http://www.w3.org/2000/svg"><path d="M16.343 12.098a10.49 10.49 0 01-3.236-.513.896.896 0 00-.926.22l-1.44 1.806c-2.593-1.238-5.023-3.575-6.315-6.261l1.787-1.522a.935.935 0 00.22-.935 10.223 10.223 0 01-.513-3.236.916.916 0 00-.907-.907H1.84C1.346.75.75.97.75 1.657c0 8.516 7.086 15.593 15.593 15.593.65 0 .907-.578.907-1.082v-3.162a.916.916 0 00-.907-.908z"/></symbol><symbol fill="none" viewBox="0 0 187 27" id="logo" xmlns="http://www.w3.org/2000/svg"><g clip-path="url(#dclip0_1_274)"><path fill-rule="evenodd" clip-rule="evenodd" d="M5.433 23.452c4.658 0 5.536-4.124 5.536-7.426h6.92c10.847 0 10.85-15.456.345-15.456-2.857 0-4.697 1.745-5.19 2.352-5.86 0-6.573 3.084-6.573 9.072v5.49c0 1.407-.562 2.32-2.076 2.32-1.293 0-1.906-1.152-2.422-2.77-.27.145-2.16 1.175-2.422 1.344.572 1.616 1.184 5.074 5.882 5.074zm6.585-13.81c1.775 0 1.926 2.688-.125 2.688-1.73 0-1.684-2.688.125-2.688zm6.216 8.055c-1.5 0-5.882-.327-5.882-.327v8.286l4.152.06 1.038-5.994 13.148-.25.346 6.573 4.844.06s.691-12.873.691-15.455c0-4.79-2.128-7.501-6.92-7.728-1.2-.056-2.77-.282-3.805-.336 4.509 5.526.921 15.11-7.611 15.11zm8.304 3.36l.346 4.869 2.768.06-.346-4.93h-2.768zm-8.65 4.72l2.768.059.692-4.78h-2.422l-1.038 4.72z" fill="#FF862F"/></g><path d="M54.79 6.078c.988 0 2.013.11 3.076.33 1.063.205 2.057.527 2.984.967l-1.276 3.65c-.395-.131-.82-.241-1.276-.329a13.902 13.902 0 00-2.574-.352c-.394-.03-.751-.044-1.07-.044-.365 0-.623.059-.775.176-.136.103-.205.257-.205.462 0 .205.236.381.706.528.471.132 1.071.278 1.8.44.334.073.699.16 1.093.263.41.103.82.235 1.23.396a7.2 7.2 0 011.208.616c.395.25.744.557 1.047.924.32.366.57.799.752 1.297.183.499.274 1.078.274 1.738 0 .674-.137 1.305-.41 1.891-.259.587-.699 1.1-1.322 1.54-.622.44-1.442.791-2.46 1.055-1.017.25-2.278.374-3.781.374-.395 0-.866-.022-1.412-.066a21.735 21.735 0 01-1.732-.22 23.785 23.785 0 01-1.867-.396 11.199 11.199 0 01-1.8-.616l1.184-3.804c.714.22 1.398.396 2.05.528.669.117 1.276.205 1.823.264.562.058 1.048.095 1.458.11.41.014.721.021.934.021.486 0 .812-.066.98-.198.181-.131.273-.293.273-.483 0-.367-.44-.645-1.322-.836-.91-.22-1.776-.44-2.596-.66a9.26 9.26 0 01-2.164-.857 4.262 4.262 0 01-1.458-1.364c-.365-.557-.547-1.29-.547-2.2 0-.703.114-1.363.342-1.979.243-.63.645-1.18 1.207-1.649.562-.47 1.298-.836 2.21-1.1.926-.278 2.065-.417 3.416-.417zM63.904 21.692c.015-1.833.015-3.658 0-5.476a328.805 328.805 0 010-5.476h5.558a328.805 328.805 0 000 5.476c.015 1.818.015 3.643 0 5.476h-5.558zM69.69 7.507c0 .719-.236 1.312-.706 1.781-.471.47-1.246.704-2.324.704-.531 0-.987-.058-1.367-.176a2.687 2.687 0 01-.934-.528 1.983 1.983 0 01-.5-.791 3.012 3.012 0 01-.16-.99c0-.748.228-1.349.683-1.803.456-.47 1.215-.704 2.278-.704 1.094 0 1.868.235 2.324.704.47.454.706 1.055.706 1.803zM78.051 7.353v3.387h3.053v3.299H78.05v2.485c0 .337.023.608.069.814.06.205.144.359.25.461a.915.915 0 00.456.198c.182.03.402.044.66.044.107 0 .32-.014.638-.044.319-.029.668-.073 1.048-.131l.592 3.452c-.303.117-.63.22-.98.308-.333.073-.675.14-1.024.198a7.753 7.753 0 01-1.003.11c-.319.03-.6.044-.843.044-1.245 0-2.224-.14-2.938-.418-.714-.278-1.253-.623-1.617-1.034-.35-.425-.57-.88-.66-1.363a7.285 7.285 0 01-.138-1.341v-3.783h-1.503v-2.925l1.913-.55c.198-.484.395-.975.593-1.473.197-.499.387-.99.57-1.474l3.917-.264zM83.322 21.692V6.452h7.22c1.58 0 2.878.205 3.896.615 1.032.396 1.845.939 2.437 1.628a5.774 5.774 0 011.23 2.419c.243.923.365 1.898.365 2.925a10.1 10.1 0 01-.41 2.88 6.36 6.36 0 01-1.344 2.442c-.623.704-1.443 1.268-2.46 1.693-1.003.426-2.24.638-3.713.638h-7.221zm5.74-11.546v7.807h1.07c.487 0 .881-.102 1.185-.308.32-.22.562-.505.73-.857.181-.367.303-.785.364-1.254.076-.469.114-.96.114-1.473 0-.528-.038-1.027-.114-1.496a3.725 3.725 0 00-.41-1.253 2.09 2.09 0 00-.775-.836c-.334-.22-.76-.33-1.276-.33h-.888zM113.724 16.194c0 .85-.129 1.628-.388 2.331a4.57 4.57 0 01-1.23 1.826c-.546.498-1.252.887-2.118 1.165-.866.279-1.913.418-3.144.418-1.245 0-2.3-.14-3.166-.418-.865-.278-1.572-.667-2.118-1.165a4.69 4.69 0 01-1.208-1.826c-.243-.703-.364-1.48-.364-2.331 0-.836.121-1.605.364-2.31a4.509 4.509 0 011.208-1.803c.562-.498 1.275-.886 2.141-1.165.866-.279 1.913-.418 3.143-.418 1.231 0 2.278.14 3.144.418.881.278 1.595.667 2.141 1.165.547.499.949 1.1 1.207 1.804.259.704.388 1.473.388 2.309zm-5.695 0c0-.718-.084-1.239-.251-1.561-.167-.338-.478-.506-.934-.506-.455 0-.766.19-.933.572-.168.38-.251.88-.251 1.495 0 .777.083 1.334.251 1.672.167.337.478.505.933.505.456 0 .767-.168.934-.505.167-.338.251-.895.251-1.672zM129.475 17.91l.387-3.145.729-4.003h5.33c-.41 1.847-.843 3.673-1.298 5.476a468.757 468.757 0 00-1.299 5.454h-6.742l-.798-4.024-.387-3.013h-.182l-.342 2.99-.752 4.047h-6.697a262.6 262.6 0 00-1.366-5.432 162.88 162.88 0 01-1.344-5.498h5.444l.729 4.09.387 3.145h.137l.478-3.166.866-4.069h5.239l.843 4.024.478 3.123h.16zM142.787 11.906a7.473 7.473 0 012.118-1.1c.744-.235 1.39-.352 1.936-.352 1.397 0 2.392.352 2.984 1.056.593.689.889 1.715.889 3.079v7.103h-5.581v-6.07c0-.425-.084-.718-.251-.88-.152-.16-.402-.241-.751-.241-.137 0-.312.029-.524.088a2.113 2.113 0 00-.638.307v6.796h-5.604a333.2 333.2 0 000-5.476 335.872 335.872 0 010-5.498h5.148l.114 1.122.16.066zM166.48 11.488c0 .689-.129 1.341-.387 1.957a4.29 4.29 0 01-1.116 1.583c-.501.455-1.116.814-1.845 1.078-.729.264-1.572.396-2.529.396h-1.959v5.19h-5.74V6.452h7.335c1.184 0 2.179.131 2.984.395.805.264 1.443.623 1.913 1.078.486.454.828.99 1.025 1.605.213.616.319 1.269.319 1.958zm-7.836-1.342v2.793h.707c.425 0 .751-.117.979-.352.243-.234.364-.564.364-.99 0-.556-.136-.938-.41-1.143-.273-.205-.63-.308-1.07-.308h-.57zM167.826 21.692c.015-2.668.007-5.322-.023-7.961-.015-2.64-.008-5.293.023-7.961h5.535c.015 2.668.023 5.322.023 7.96v7.962h-5.558zM181.282 10.432c.821 0 1.663.08 2.529.242.866.147 1.686.389 2.46.726l-.957 3.035a11.691 11.691 0 00-1.981-.462 12.668 12.668 0 00-1.709-.132c-.228 0-.387.03-.478.088-.091.059-.137.154-.137.286 0 .073.129.146.387.22.259.058.57.124.934.198.456.073.957.183 1.504.33a5.53 5.53 0 011.526.615c.471.279.858.653 1.162 1.122.319.454.478 1.04.478 1.76 0 .483-.106.938-.319 1.363-.213.425-.577.799-1.093 1.121-.501.308-1.17.558-2.005.748-.835.176-1.868.264-3.098.264a17.446 17.446 0 01-2.528-.198 21.866 21.866 0 01-1.549-.286 11.573 11.573 0 01-1.481-.484l.911-3.166c1.261.351 2.248.564 2.962.637a21.38 21.38 0 001.571.088c.258 0 .471-.014.638-.044.167-.044.251-.124.251-.242a.274.274 0 00-.137-.242 1.024 1.024 0 00-.342-.131 3.384 3.384 0 00-.455-.11 21.77 21.77 0 01-.433-.088 54.717 54.717 0 01-1.663-.418 5.961 5.961 0 01-1.435-.594 3.197 3.197 0 01-1.002-.946c-.258-.396-.388-.909-.388-1.54 0-.512.099-.996.297-1.45.197-.455.524-.851.979-1.188.456-.352 1.056-.623 1.8-.814.759-.205 1.693-.308 2.801-.308z" fill="#A65CF0"/><defs><clipPath id="dclip0_1_274"><path fill="#fff" transform="matrix(-1 0 0 1 37 0)" d="M0 0h37v27H0z"/></clipPath></defs></symbol><symbol fill="none" viewBox="0 0 30 30" id="ok" xmlns="http://www.w3.org/2000/svg"><path d="M12.853 9.99a2.24 2.24 0 104.478 0 2.24 2.24 0 00-4.478 0z" fill="#999"/><path fill-rule="evenodd" clip-rule="evenodd" d="M15 30c8.284 0 15-6.716 15-15 0-8.284-6.716-15-15-15C6.716 0 0 6.716 0 15c0 8.284 6.716 15 15 15zM9.675 9.99a5.417 5.417 0 1110.834 0 5.417 5.417 0 01-10.834 0zm10.866 8.204c-.069.055-1.368 1.082-3.537 1.524l3.274 3.244a1.473 1.473 0 11-2.082 2.085l-3.178-3.095-2.886 3.075c-.29.3-.675.45-1.06.45a1.473 1.473 0 01-1.06-2.495l3.107-3.247c-2.23-.431-3.583-1.485-3.653-1.541a1.473 1.473 0 011.843-2.298c.014.01 1.429 1.074 3.71 1.075 2.28-.001 3.666-1.064 3.68-1.075a1.473 1.473 0 011.842 2.298z" fill="#999"/></symbol><symbol fill="none" viewBox="0 0 16 16" id="search" xmlns="http://www.w3.org/2000/svg"><path d="M15.819 14.063l-3.212-2.747a6.968 6.968 0 001.456-4.285c0-1.88-.734-3.642-2.06-4.97A6.98 6.98 0 007.03 0a6.99 6.99 0 00-4.97 2.06A6.975 6.975 0 000 7.031c0 1.878.734 3.645 2.06 4.971a6.975 6.975 0 004.971 2.06c1.57 0 3.061-.51 4.282-1.453l3.212 2.745a.193.193 0 00.272 0l1.022-1.02a.195.195 0 00.056-.136.193.193 0 00-.056-.136zm-5.075-3.32a5.222 5.222 0 01-3.713 1.538 5.222 5.222 0 01-3.712-1.537A5.222 5.222 0 011.78 7.03c0-1.401.546-2.72 1.538-3.712A5.222 5.222 0 017.03 1.78c1.402 0 2.721.544 3.713 1.538A5.222 5.222 0 0112.28 7.03a5.218 5.218 0 01-1.537 3.713z" fill="#999"/></symbol><symbol fill="none" viewBox="0 0 22 22" id="small-arrow" xmlns="http://www.w3.org/2000/svg"><g clip-path="url(#gclip0_8752_591)" stroke="#A65CF0" stroke-width="2"><path d="M9.625 7.563L13.063 11l-3.438 3.438" stroke-linecap="round" stroke-linejoin="round"/><circle cx="11" cy="11" r="10"/></g><defs><clipPath id="gclip0_8752_591"><path fill="#fff" d="M0 0h22v22H0z"/></clipPath></defs></symbol><symbol fill="none" viewBox="0 0 16 15" id="star" xmlns="http://www.w3.org/2000/svg"><path d="M15.276 5.282l-4.732-.684L8.428.33a.6.6 0 00-1.07 0L5.243 4.598.51 5.282a.596.596 0 00-.51.595.593.593 0 00.18.418l3.424 3.321-.808 4.69A.59.59 0 003.34 15a.598.598 0 00.32-.068l4.233-2.214 4.233 2.214a.595.595 0 00.865-.625l-.809-4.69 3.424-3.321a.592.592 0 00-.33-1.013z" fill="#FF862F"/></symbol><symbol fill="none" viewBox="0 0 26 28" id="user" xmlns="http://www.w3.org/2000/svg"><path d="M24.98 22.85a13.17 13.17 0 00-2.787-4.203 12.977 12.977 0 00-4.131-2.835l-.042-.018a8.752 8.752 0 003.554-7.07C21.574 3.904 17.737 0 13 0S4.426 3.905 4.426 8.724c0 2.909 1.4 5.487 3.554 7.073-.014.008-.028.011-.042.018a12.864 12.864 0 00-4.131 2.835 13.227 13.227 0 00-2.787 4.204A13.269 13.269 0 000 27.712a.286.286 0 00.079.203.276.276 0 00.198.085H2.35a.278.278 0 00.277-.274 10.576 10.576 0 013.035-7.187c1.96-1.994 4.564-3.092 7.337-3.092 2.773 0 5.376 1.098 7.337 3.092a10.576 10.576 0 013.035 7.187.276.276 0 00.277.274h2.074a.273.273 0 00.198-.085.282.282 0 00.079-.203 13.302 13.302 0 00-1.02-4.862zM13 14.774c-1.587 0-3.08-.63-4.204-1.773a6.064 6.064 0 01-1.743-4.277c0-1.615.62-3.135 1.743-4.278A5.857 5.857 0 0113 2.673c1.587 0 3.08.63 4.204 1.773a6.064 6.064 0 011.743 4.278A6.064 6.064 0 0117.204 13 5.857 5.857 0 0113 14.774z" fill="#A65CF0"/></symbol><symbol fill="none" viewBox="0 0 30 30" id="vk" xmlns="http://www.w3.org/2000/svg"><path d="M15 0C6.716 0 0 6.716 0 15c0 8.284 6.716 15 15 15 8.284 0 15-6.716 15-15 0-8.284-6.716-15-15-15zm7.609 16.622c.699.683 1.439 1.326 2.066 2.08.278.333.54.677.74 1.065.285.553.027 1.159-.467 1.192l-3.073-.001c-.794.066-1.426-.255-1.958-.797-.425-.433-.82-.894-1.229-1.342a2.871 2.871 0 00-.553-.492c-.42-.272-.783-.189-1.023.249-.245.445-.3.939-.324 1.434-.033.725-.252.914-.979.948-1.554.073-3.028-.163-4.398-.946-1.208-.69-2.144-1.666-2.959-2.77-1.587-2.152-2.803-4.514-3.895-6.944-.246-.547-.066-.84.538-.85a85.522 85.522 0 013.009-.002c.408.007.678.24.835.625.542 1.334 1.206 2.603 2.039 3.78.222.313.448.625.77.846.357.245.628.164.796-.233.107-.253.154-.523.177-.794.08-.927.09-1.854-.049-2.777-.086-.578-.41-.951-.987-1.06-.293-.056-.25-.165-.108-.332.248-.29.48-.47.944-.47h3.472c.547.107.67.353.744.904l.003 3.859c-.006.213.107.845.49.985.307.101.51-.145.693-.34.833-.883 1.426-1.926 1.957-3.005.235-.476.437-.969.634-1.462.146-.365.373-.545.785-.539l3.343.004c.099 0 .199.001.296.018.564.097.718.339.544.889-.275.863-.808 1.583-1.329 2.304-.558.772-1.154 1.517-1.707 2.293-.508.709-.468 1.066.163 1.681z" fill="#999"/></symbol></svg>